<svg version="1.2" baseProfile="tiny" viewBox="0 0 14.625 18.000" xmlns:xlink="http://www.w3.org/1999/xlink" xmlns="http://www.w3.org/2000/svg">
<path style="fill:#ffffff;" d="M12.462,5.196C12.443,5.52,11.854,5.85,11.38,6.104C10.896,6.36,9.889,6.427,9.262,6.427H5.3   c-0.628,0-1.638-0.067-2.121-0.323C2.699,5.85,2.115,5.52,2.1,5.196C2.082,4.875,2.226,4.579,2.48,4.535   C2.738,4.491,3.132,4.35,3.306,3.461C3.487,2.574,3.591,1.8,4.906,1.23c0.103-0.2,0.795-0.517,1.347-0.63   C6.362,0.484,6.709,0,7.281,0C7.85,0,8.198,0.484,8.305,0.6c0.553,0.113,1.245,0.43,1.35,0.63c1.313,0.57,1.42,1.345,1.596,2.231   c0.178,0.889,0.573,1.03,0.83,1.074C12.332,4.579,12.477,4.875,12.462,5.196z M12.156,10.324c-0.262-0.113-0.504-0.217-0.74-0.316   c-0.691,1.648-2.271,2.807-4.105,2.807c-1.829,0-3.408-1.157-4.101-2.807c-0.237,0.1-0.479,0.203-0.735,0.316   C0.944,11.004,0,14.289,0,15.32c0,1.037,0.944,0.801,2.474,1.479C3.998,17.477,4.983,18,7.314,18c2.331,0,3.313-0.523,4.842-1.201   c1.525-0.678,2.469-0.441,2.469-1.479C14.625,14.289,13.682,11.004,12.156,10.324z M10.547,7.361   c-0.509,0.082-1.021,0.092-1.295,0.092H5.374c-0.273,0-0.786-0.011-1.294-0.092C3.809,7.318,3.427,6.936,3.427,7.334   c0,2.404,1.59,4.501,3.883,4.501c2.303,0,3.861-2.147,3.861-4.552C11.172,6.885,10.818,7.318,10.547,7.361z"/>
</svg>